<svg width="512" height="512" viewBox="0 0 512 512" fill="none" xmlns="http://www.w3.org/2000/svg">
<g clip-path="url(#clip0_1779_136)">
<rect width="512" height="512" rx="144" fill="#44403B"/>
<path d="M251 352C249.167 341.167 244.333 329.5 236.5 317C228.667 304.333 217.5 292.583 203 281.75C188.667 270.917 174.333 264 160 261V250.5C174.167 247.167 187.75 241 200.75 232C213.917 222.833 224.917 211.833 233.75 199C242.75 185.833 248.5 172.833 251 160H261.5C263 168.333 266 176.917 270.5 185.75C275 194.417 280.75 202.75 287.75 210.75C294.917 218.583 302.917 225.667 311.75 232C324.917 241.333 338.333 247.5 352 250.5V261C342.833 262.833 333.333 266.583 323.5 272.25C313.833 277.917 304.833 284.667 296.5 292.5C288.167 300.167 281.333 308.25 276 316.75C268.167 329.25 263.333 341 261.5 352H251Z" fill="#FAFAF9"/>
</g>
<defs>
<clipPath id="clip0_1779_136">
<rect width="512" height="512" fill="white"/>
</clipPath>
</defs>
</svg>
